<?xml version="1.0" encoding="utf-8"?>
<svg xmlns="http://www.w3.org/2000/svg" width="48" height="48" viewBox="0 0 48 48">

    <path
        fill="#ffffff"
        d="M24 0a24 24 0 0 1 24 24 24 24 0 0 1-24 24A24 24 0 0 1 0 24 24 24 0 0 1 24 0z"
        fill-opacity="0.24"/>
    <path
        fill="#20262b"
        d="M24.54 30.351l-1.145-0.668v-1.41l1.49 0.55 1.144 0.668-1.49 0.86z"/>
    <path
        fill="#2b333b"
        d="M24.54 28.942l-1.145-0.668 1.49-0.86 1.144 0.668-1.49 0.86z"/>
    <path
        fill="#131719"
        d="M24.539 28.942v1.41l1.49-0.861v-1.41l-1.49 0.861z"/>
    <path
        fill="#bfbfbf"
        d="M38.61 38.16l-13.898-8.024v-1.109l1.172 0.432 13.898 8.024-1.172 0.677"/>
    <path
        fill="#d9d9d9"
        d="M38.61 37.052l-13.898-8.025 1.172-0.676 13.898 8.024-1.172 0.677z"/>
    <path
        fill="#a1a1a1"
        d="M38.61 37.052v1.108l1.172-0.677v-1.108l-1.172 0.677z"/>
    <path
        fill="#20262b"
        d="M39.51 38.983l-1.144-0.669v-1.409l1.49 0.549 1.145 0.668-1.49 0.86z"/>
    <path
        fill="#2b333b"
        d="M39.51 37.573l-1.144-0.668 1.49-0.86 1.145 0.668-1.49 0.86z"/>
    <path
        fill="#131719"
        d="M39.51 37.573v1.41l1.49-0.86v-1.41l-1.49 0.86"/>
    <path
        fill="#d9d9d9"
        d="M32.169 5.367l-1.12-0.657 0.99-0.577 1.119 0.657-0.99 0.577z"/>
    <path
        fill="#a1a1a1"
        d="M33.158 4.79v27.896l-0.989 0.577V5.367l0.99-0.577z"/>
    <path
        fill="#bfbfbf"
        d="M31.05 4.71v27.896l1.119 0.657V5.367l-1.12-0.657z"/>
    <path
        fill="#a1a1a1"
        d="M15.63 43.956l16.503-9.531v-1.108l-1.172 0.431L14.46 43.28l1.172 0.676z"/>
    <path
        fill="#d9d9d9"
        d="M15.63 42.848l16.503-9.532-1.172-0.676-16.501 9.53 1.172 0.677z"/>
    <path
        fill="#a1a1a1"
        d="M15.63 42.848v1.108l-1.17-0.676v-1.108l1.172 0.676"/>
    <path
        fill="#d9d9d9"
        d="M17.722 36.653l-1.12-0.656 0.99-0.578 1.119 0.658-0.989 0.576"/>
    <path
        fill="#a1a1a1"
        d="M18.711 36.077v5l-0.989 0.577v-5l0.99-0.577z"/>
    <path
        fill="#bfbfbf"
        d="M16.602 35.997v5l1.12 0.657v-5l-1.12-0.657z"/>
    <path
        fill="#131719"
        d="M14.945 44.532l1.144-0.667v-1.41l-1.49 0.55-1.144 0.667 1.49 0.86z"/>
    <path
        fill="#2b333b"
        d="M14.945 43.123l1.144-0.668-1.49-0.86-1.144 0.668 1.49 0.86z"/>
    <path
        fill="#20262b"
        d="M14.945 43.123v1.41l-1.49-0.861v-1.409l1.49 0.86z"/>
    <path
        fill="#131719"
        d="M27.589 36.902l5.228-2.996v-0.699l-6.486 2.668-1.144-0.386 2.402 1.413z"/>
    <path
        fill="#2b333b"
        d="M27.589 36.203l5.228-2.996-2.402-1.413-5.228 2.996 2.402 1.413z"/>
    <path
        fill="#20262b"
        d="M27.589 36.203v0.699l-2.402-1.413V34.79l2.402 1.413z"/>
    <path
        fill="#131719"
        d="M27.589 36.068l5.228-2.996v-0.699l-6.486 2.669-1.144-0.387 2.402 1.413z"/>
    <path
        fill="#2b333b"
        d="M27.589 35.37l5.228-2.997-2.402-1.413-5.228 2.996 2.402 1.413z"/>
    <path
        fill="#20262b"
        d="M27.589 35.37v0.698l-2.402-1.413v-0.699l2.402 1.413"/>
    <path
        fill="#131719"
        d="M27.589 35.233l5.228-2.995v-0.699l-6.486 2.668-1.144-0.386 2.402 1.412z"/>
    <path
        fill="#2b333b"
        d="M27.589 34.536l5.228-2.997-2.402-1.413-5.228 2.997 2.402 1.413z"/>
    <path
        fill="#20262b"
        d="M27.589 34.536v0.697l-2.402-1.412v-0.698l2.402 1.413"/>
    <path
        fill="#131719"
        d="M27.589 34.4l5.228-2.997v-0.697l-6.486 2.667-1.144-0.386 2.402 1.413z"/>
    <path
        fill="#2b333b"
        d="M27.589 33.701l5.228-2.995-2.402-1.414-5.228 2.996 2.402 1.413z"/>
    <path
        fill="#20262b"
        d="M27.589 33.702V34.4l-2.402-1.413v-0.698l2.402 1.413z"/>
    <path
        fill="#131719"
        d="M27.589 33.566l5.228-2.996v-0.7l-6.486 2.67-1.144-0.387 2.402 1.413z"/>
    <path
        fill="#2b333b"
        d="M27.589 32.867l5.228-2.996-2.402-1.412-5.228 2.996 2.402 1.412z"/>
    <path
        fill="#20262b"
        d="M27.589 32.867v0.699l-2.402-1.413v-0.698l2.402 1.412z"/>
    <path
        fill="#131719"
        d="M27.589 32.732l5.228-2.997v-0.697l-6.486 2.668-1.144-0.387 2.402 1.413z"/>
    <path
        fill="#2b333b"
        d="M27.589 32.033l5.228-2.996-2.402-1.413-5.228 2.997 2.402 1.412z"/>
    <path
        fill="#20262b"
        d="M27.589 32.034v0.698l-2.402-1.413v-0.698l2.402 1.413"/>
    <path
        fill="#131719"
        d="M27.589 31.898l5.228-2.996v-0.699l-6.486 2.668-1.144-0.386 2.402 1.413"/>
    <path
        fill="#2b333b"
        d="M27.589 31.2l5.228-2.997-2.402-1.413-5.228 2.996 2.402 1.414z"/>
    <path
        fill="#20262b"
        d="M27.589 31.2v0.698l-2.402-1.413v-0.699l2.402 1.414z"/>
    <path
        fill="#131719"
        d="M27.589 31.064l5.228-2.997V27.37l-6.486 2.668-1.144-0.386 2.402 1.413z"/>
    <path
        fill="#2b333b"
        d="M27.589 30.365l5.228-2.996-2.402-1.413-5.228 2.997 2.402 1.412z"/>
    <path
        fill="#20262b"
        d="M27.589 30.365v0.699l-2.402-1.413v-0.698l2.402 1.412z"/>
    <path
        fill="#131719"
        d="M27.589 30.23l5.228-2.996v-0.7l-6.486 2.67-1.144-0.387 2.402 1.413z"/>
    <path
        fill="#2b333b"
        d="M27.589 29.531l5.228-2.996-2.402-1.412-5.228 2.995 2.402 1.413z"/>
    <path
        fill="#20262b"
        d="M27.589 29.531v0.699l-2.402-1.413v-0.699l2.402 1.413z"/>
    <path
        fill="#131719"
        d="M27.81 28.996l4.41-2.527v-0.59l-5.472 2.251-0.965-0.326 2.026 1.192z"/>
    <path
        fill="#262d33"
        d="M27.81 28.407l4.41-2.528-2.027-1.192-4.41 2.528 2.026 1.192z"/>
    <path
        fill="#20262b"
        d="M27.81 28.407v0.59l-2.027-1.193v-0.589l2.026 1.192"/>
    <path
        fill="#d9d9d9"
        d="M25.747 9.1l-1.12-0.656 0.989-0.577 1.12 0.657-0.99 0.577z"/>
    <path
        fill="#a1a1a1"
        d="M26.736 8.524V36.42l-0.989 0.576V9.101l0.99-0.577z"/>
    <path
        fill="#bfbfbf"
        d="M24.627 8.444V36.34l1.12 0.656V9.101l-1.12-0.657"/>
    <path
        fill="#b5b5b5"
        d="M21.756 30.629l-3.479-1.864-0.068-0.04c-0.11-0.049-0.246-0.037-0.395 0.05-0.36 0.207-0.652 0.765-0.652 1.245 0 0.276 0.096 0.465 0.246 0.538l3.492 1.871 0.017-0.132c0.044-0.012 0.09-0.032 0.136-0.059 0.36-0.207 0.652-0.765 0.652-1.246 0-0.123-0.02-0.228-0.054-0.314l0.105-0.049"/>
    <path
        fill="#293138"
        d="M21.946 31.133c0 0.48-0.292 1.038-0.652 1.246-0.36 0.208-0.652-0.012-0.652-0.493 0-0.48 0.292-1.038 0.652-1.246 0.36-0.207 0.652 0.013 0.652 0.493z"/>
    <path
        fill="#d5d5d5"
        d="M21.7 31.291c0 0.279-0.17 0.602-0.379 0.723-0.208 0.12-0.378-0.008-0.378-0.286 0-0.279 0.17-0.602 0.378-0.723 0.21-0.12 0.378 0.008 0.378 0.286z"/>
    <path
        fill="#767e87"
        d="M21.26 31.97c0.209-0.12 0.378-0.444 0.378-0.722 0-0.122-0.034-0.212-0.087-0.268 0.09 0.04 0.148 0.149 0.148 0.311 0 0.279-0.17 0.602-0.379 0.723-0.117 0.067-0.22 0.054-0.29-0.018 0.064 0.029 0.143 0.024 0.23-0.026"/>
    <path
        fill="#d9d9d9"
        d="M21.735 31.139l-1.12-0.657 0.99-0.577 1.12 0.657-0.99 0.577"/>
    <path
        fill="#a1a1a1"
        d="M22.724 30.562v8.174l-0.989 0.577v-8.174l0.99-0.577z"/>
    <path
        fill="#bfbfbf"
        d="M20.616 30.482v8.174l1.12 0.657v-8.174l-1.12-0.657z"/>
    <path
        fill="#b5b5b5"
        d="M26.341 33.183l-3.478-1.864-0.069-0.04c-0.11-0.048-0.246-0.036-0.395 0.05-0.36 0.207-0.651 0.765-0.651 1.245 0 0.276 0.096 0.464 0.245 0.537l3.493 1.872 0.017-0.131c0.044-0.013 0.09-0.033 0.136-0.06 0.36-0.208 0.652-0.765 0.652-1.245 0-0.123-0.02-0.229-0.054-0.315l0.104-0.049"/>
    <path
        fill="#293138"
        d="M26.532 33.687c0 0.48-0.292 1.038-0.652 1.246-0.36 0.208-0.652-0.013-0.652-0.493s0.291-1.038 0.652-1.246c0.36-0.208 0.652 0.013 0.652 0.493z"/>
    <path
        fill="#d5d5d5"
        d="M26.285 33.845c0 0.279-0.17 0.602-0.378 0.723-0.209 0.12-0.378-0.008-0.378-0.286 0-0.279 0.17-0.602 0.378-0.723 0.209-0.12 0.378 0.008 0.378 0.286z"/>
    <path
        fill="#767e87"
        d="M25.846 34.524c0.209-0.12 0.378-0.444 0.378-0.723 0-0.121-0.034-0.212-0.087-0.268 0.089 0.04 0.147 0.15 0.147 0.312 0 0.278-0.17 0.602-0.378 0.722-0.117 0.068-0.22 0.055-0.29-0.017 0.064 0.029 0.143 0.024 0.23-0.026"/>
    <path
        fill="#bfbfbf"
        d="M25.31 33.418l-7.756-4.428v-0.344l1.172-0.333 7.756 4.428-1.172 0.677"/>
    <path
        fill="#d9d9d9"
        d="M25.31 33.074l-7.756-4.428 1.172-0.676 7.756 4.427-1.172 0.677z"/>
    <path
        fill="#a1a1a1"
        d="M25.31 33.074v0.344l1.171-0.677v-0.344l-1.171 0.677z"/>
    <path
        fill="#000000"
        d="M15.169 38.794l-2.146-1.25 5.53-3.293 2.145 1.528-5.529 3.015"/>
    <path
        fill="#d9d9d9"
        d="M15.169 38.384l-2.146-1.25 5.53-3.247 2.145 1.25-5.529 3.247z"/>
    <path
        fill="#a1a1a1"
        d="M20.698 35.138v0.64l-5.53 3.016v-0.41l5.53-3.246z"/>
    <path
        fill="#bfbfbf"
        d="M13.023 37.133v0.41l2.146 1.251v-0.41l-2.146-1.25"/>
    <path
        fill="#131719"
        d="M20.886 34.803v0.559c-0.012 0.149-0.126 0.303-0.338 0.426l-4.513 2.448c-0.079 0.045-0.165 0.083-0.255 0.112-0.312 0.103-0.676 0.112-0.955 0.021-0.062-0.02-0.12-0.046-0.172-0.075l-1.591-0.93c-0.16-0.091-0.237-0.214-0.24-0.343V36.45h0.129c0.054-0.059 0.123-0.113 0.21-0.164l0.141-0.082 4.372-2.366c0.41-0.237 1.028-0.262 1.382-0.058l1.591 0.93c0.077 0.044 0.134 0.096 0.174 0.152l0.065-0.058z"/>
    <path
        fill="#20262b"
        d="M14.825 36.204v2.166c-0.062-0.021-0.12-0.046-0.172-0.076l-1.591-0.93c-0.16-0.091-0.237-0.214-0.24-0.342v-0.573h0.129c0.054-0.058 0.123-0.113 0.21-0.164l0.141-0.081h1.523"/>
    <path
        fill="#1b2024"
        d="M15.78 37.557v0.791c-0.312 0.103-0.676 0.112-0.955 0.021v-0.812h0.955"/>
    <path
        fill="#2b333b"
        d="M14.653 37.763l-1.591-0.93c-0.354-0.204-0.31-0.562 0.099-0.798l4.513-2.448c0.41-0.236 1.028-0.262 1.382-0.057l1.592 0.93c0.354 0.203 0.31 0.56-0.1 0.797l-4.513 2.448c-0.409 0.236-1.027 0.262-1.382 0.058z"/>
    <path
        fill="#b5b5b5"
        d="M28.407 25.826c-0.019-0.042-0.055-0.083-0.107-0.118-0.187-0.124-0.518-0.137-0.74-0.027-0.088 0.043-0.146 0.1-0.17 0.16l-0.015-0.01v1.345c-0.003 0.07 0.038 0.14 0.123 0.197 0.187 0.124 0.518 0.137 0.739 0.028 0.123-0.06 0.187-0.147 0.186-0.232V25.8l-0.016 0.025"/>
    <path
        fill="#434f5c"
        d="M27.561 25.585c0.222-0.109 0.552-0.097 0.74 0.028 0.186 0.125 0.158 0.313-0.064 0.422-0.22 0.109-0.552 0.096-0.738-0.028-0.187-0.124-0.16-0.313 0.062-0.422z"/>
    <path
        fill="#b5b5b5"
        d="M28.152 25.954c-0.032 0.015-0.065 0.026-0.1 0.035H28.05c-0.066 0.018-0.138 0.024-0.208 0.02H27.84c-0.091-0.007-0.178-0.032-0.243-0.074-0.031-0.021-0.054-0.045-0.067-0.07-0.023-0.04-0.014-0.087 0.021-0.127l0.006-0.006 0.002-0.003c0.021-0.024 0.05-0.044 0.087-0.062l0.021-0.009c0.165-0.072 0.4-0.062 0.532 0.028 0.032 0.02 0.054 0.044 0.067 0.068 0.037 0.07-0.008 0.147-0.114 0.2"/>
    <path
        fill="#b5b5b5"
        d="M28.305 7.228c-0.015-0.034-0.044-0.066-0.086-0.094-0.148-0.099-0.412-0.109-0.588-0.022-0.07 0.034-0.116 0.08-0.137 0.127l-0.011-0.007v18.54c-0.002 0.057 0.03 0.112 0.098 0.157 0.149 0.1 0.412 0.11 0.588 0.023 0.099-0.049 0.149-0.117 0.148-0.185V7.207l-0.012 0.02"/>
    <path
        fill="#d9d9d9"
        d="M27.63 7.036c0.176-0.087 0.44-0.077 0.588 0.022 0.148 0.099 0.126 0.25-0.05 0.336-0.176 0.087-0.44 0.077-0.588-0.022-0.149-0.099-0.127-0.25 0.05-0.336z"/>
    <path
        fill="#b5b5b5"
        d="M30.797 24.515c-0.019-0.043-0.054-0.083-0.107-0.118-0.187-0.125-0.518-0.137-0.74-0.028-0.088 0.044-0.146 0.1-0.17 0.16l-0.015-0.01v1.346c-0.002 0.07 0.038 0.14 0.123 0.197 0.187 0.124 0.518 0.136 0.74 0.027 0.123-0.06 0.186-0.146 0.185-0.232v-1.369l-0.016 0.027"/>
    <path
        fill="#434f5c"
        d="M29.951 24.274c0.222-0.109 0.552-0.097 0.74 0.028 0.186 0.124 0.158 0.313-0.063 0.421-0.222 0.11-0.552 0.097-0.74-0.027-0.186-0.125-0.158-0.314 0.063-0.422z"/>
    <path
        fill="#b5b5b5"
        d="M30.54 24.642c-0.03 0.016-0.064 0.027-0.1 0.036-0.067 0.018-0.14 0.023-0.209 0.019H30.23c-0.091-0.007-0.178-0.032-0.243-0.074-0.031-0.021-0.053-0.044-0.067-0.07-0.022-0.04-0.013-0.086 0.021-0.128l0.006-0.005 0.002-0.003c0.021-0.024 0.05-0.044 0.087-0.062l0.021-0.009c0.166-0.071 0.4-0.06 0.533 0.028 0.031 0.021 0.053 0.044 0.067 0.068 0.036 0.07-0.01 0.148-0.115 0.2"/>
    <path
        fill="#b5b5b5"
        d="M30.694 5.915c-0.015-0.033-0.044-0.066-0.086-0.094C30.46 5.723 30.196 5.713 30.02 5.8c-0.07 0.035-0.116 0.08-0.136 0.128L29.872 5.92v18.54c-0.002 0.056 0.03 0.112 0.099 0.157 0.148 0.099 0.412 0.108 0.587 0.022 0.099-0.048 0.149-0.116 0.149-0.184V5.895l-0.013 0.02z"/>
    <path
        fill="#d9d9d9"
        d="M30.02 5.724c0.176-0.087 0.44-0.077 0.588 0.022 0.148 0.099 0.126 0.25-0.05 0.335-0.176 0.087-0.44 0.078-0.588-0.021-0.149-0.1-0.127-0.25 0.05-0.336zm-6.364 16.189c0 0.199-0.12 0.43-0.27 0.515-0.068 0.041-0.132 0.041-0.18 0.012l-0.001 0.004-0.008-0.01c-0.025-0.017-0.047-0.047-0.06-0.086L20.054 17.9l-0.004-0.004-0.004-0.006-0.004-0.002-0.002-0.002-0.007-0.004-0.002 0.004-6.64-3.773-0.043-0.018-0.002 0.006c-0.113 0.031-0.224 0.064-0.337 0.096l-1.69 0.474-2.037 0.571c-0.254 0.07-0.51 0.142-0.765 0.215l-0.279 0.078c-0.115 0.02-0.214 0-0.234-0.132L8 15.35c0-0.2 0.12-0.43 0.27-0.515 0.005-0.004 0.072-0.024 0.185-0.057l0.05-0.016c0.201-0.058 0.518-0.15 0.896-0.255l0.185-0.053c0.21-0.06 0.436-0.122 0.668-0.187l0.23-0.065 0.017-0.005c0.041-0.012 0.083-0.022 0.121-0.034l0.211-0.058 0.234-0.065c0.04-0.011 0.078-0.02 0.117-0.032 0.234-0.065 0.467-0.13 0.69-0.19 0.038-0.012 0.075-0.021 0.11-0.031l0.426-0.117 0.197-0.053 0.275-0.074 0.244-0.064c0.134-0.036 0.25-0.067 0.34-0.088l0.077-0.02 0.06-0.013 0.012-0.002 0.002-0.002 0.06-0.012 0.02-0.002 6.68 3.791v0.002l0.003 0.002 0.015 0.006 0.002 0.002 0.01 0.01 0.014 0.01 0.015 0.019 0.027 0.054 0.008 0.01v0.002l0.21 0.299 0.18 0.261 1.712 2.47 0.088 0.127c0.554 0.808 0.995 1.465 0.995 1.508"/>
    <path
        fill="#20262b"
        d="M13.615 13.355l-0.033 0.014c-0.154 0.09-0.279 0.33-0.279 0.537 0 0.103 0.033 0.177 0.088 0.207l-0.043-0.018-0.002 0.005-0.337 0.097c-0.565 0.157-1.126 0.316-1.69 0.473-0.679 0.19-1.358 0.38-2.037 0.572-0.254 0.07-0.51 0.142-0.765 0.215-0.078 0.021-0.183 0.062-0.279 0.077-0.115 0.02-0.214 0-0.234-0.132L8 15.35c0-0.105 0.031-0.21 0.08-0.303 0.04-0.074 0.097-0.134 0.162-0.187 0.06-0.048 0.14-0.06 0.213-0.081l0.05-0.016c0.201-0.058 0.518-0.15 0.896-0.255l0.185-0.053c0.21-0.06 0.436-0.123 0.668-0.187l0.23-0.065 0.017-0.005c0.041-0.01 0.08-0.022 0.121-0.034l0.211-0.058 0.234-0.065 0.117-0.033 0.69-0.19 0.11-0.03c0.147-0.042 0.289-0.08 0.426-0.118l0.197-0.052c0.095-0.025 0.189-0.05 0.275-0.075l0.244-0.064c0.134-0.035 0.25-0.066 0.34-0.088l0.077-0.019 0.06-0.014 0.012-0.002zm10.04 8.558l-0.004 0.066c-0.003 0.034-0.01 0.067-0.02 0.1-0.018 0.066-0.048 0.13-0.085 0.188-0.062 0.096-0.16 0.2-0.286 0.178-0.037-0.007-0.073-0.027-0.096-0.058l-0.029-0.04-0.055-0.08-0.134-0.194-0.198-0.285-0.25-0.36-0.287-0.415-0.313-0.452-0.325-0.47-0.324-0.467-0.31-0.447-0.284-0.41c-0.08-0.117-0.162-0.233-0.243-0.35l-0.19-0.275-0.124-0.178-0.048-0.068-0.01-0.01-0.006-0.006c-0.035-0.037-0.056-0.097-0.056-0.178 0-0.206 0.125-0.447 0.279-0.534 0.033-0.02 0.066-0.03 0.095-0.03l0.043 0.01 0.002-0.005 0.01 0.01 0.014 0.009 0.015 0.02c0.016 0.017 0.026 0.039 0.035 0.066l0.209 0.299 0.182 0.261c0.425 0.607 1.12 1.608 1.71 2.47l0.088 0.127 0.26 0.378c0.167 0.247 0.335 0.494 0.5 0.743l0.156 0.243 0.049 0.08 0.02 0.035 0.01 0.029"/>
    <path
        fill="#b5b5b5"
        d="M17.446 15.445c-0.015-0.034-0.044-0.066-0.086-0.095-0.15-0.1-0.416-0.11-0.594-0.022-0.072 0.035-0.118 0.08-0.138 0.129l-0.012-0.008v0.18c-0.002 0.056 0.03 0.113 0.1 0.159 0.15 0.1 0.415 0.11 0.593 0.022 0.1-0.049 0.15-0.118 0.15-0.187v-0.199l-0.013 0.02"/>
    <path
        fill="#4c5a69"
        d="M16.765 15.251c0.178-0.087 0.444-0.077 0.594 0.023 0.15 0.1 0.128 0.251-0.05 0.339-0.178 0.088-0.444 0.077-0.594-0.022-0.15-0.1-0.128-0.252 0.05-0.34z"/>
    <path
        fill="#b5b5b5"
        d="M17.209 13.694l-0.036-0.04c-0.063-0.041-0.175-0.046-0.25-0.008-0.03 0.014-0.049 0.033-0.057 0.054l-0.005-0.004v1.701c-0.001 0.024 0.013 0.047 0.042 0.067 0.063 0.042 0.174 0.046 0.249 0.01 0.041-0.021 0.063-0.05 0.062-0.08v-1.709l-0.005 0.01"/>
    <path
        fill="#4c5a69"
        d="M16.923 13.613c0.075-0.037 0.186-0.032 0.25 0.01 0.062 0.042 0.053 0.105-0.022 0.142-0.074 0.036-0.186 0.032-0.249-0.01-0.063-0.041-0.053-0.105 0.021-0.142"/>
    <path
        fill="#a1a1a1"
        d="M16.656 14.316l16.502-9.532V3.676l-1.172 0.432-16.502 9.532 1.172 0.676"/>
    <path
        fill="#d9d9d9"
        d="M16.656 13.208l16.502-9.532L31.986 3l-16.502 9.532 1.172 0.676"/>
    <path
        fill="#bfbfbf"
        d="M16.656 13.208v1.108l-1.172-0.676v-1.11l1.172 0.677"/>

</svg>